Motion_kv06_l
version=1
nRows=8
nColumns=43
inDegrees=yes
endheader
time	pelvis_tilt	pelvis_list	pelvis_rotation	pelvis_tx	pelvis_ty	pelvis_tz	hip_flexion_r	hip_adduction_r	hip_rotation_r	knee_angle_r	ankle_angle_r	subtalar_angle_r	mtp_angle_r	hip_flexion_l	hip_adduction_l	hip_rotation_l	knee_angle_l	ankle_angle_l	subtalar_angle_l	mtp_angle_l	lumbar_extension	lumbar_bending	lumbar_rotation	neck_flexion	neck_lateral_bending	neck_rotation	arm_flex_r	arm_add_r	arm_rot_r	elbow_flex_r	pro_sup_r	wrist_flex_r	wrist_dev_r	hand_finger_flex_r	arm_flex_l	arm_add_l	arm_rot_l	elbow_flex_l	pro_sup_l	wrist_flex_l	wrist_dev_l	hand_finger_flex_l
      0.51750000	      0.14522683	    -12.88550820	     80.75462896	     -0.02619290	      1.52647357	      1.31930745	     78.14256914	      3.52137667	     -9.92541701	   -145.31289983	     16.73290788	     -1.48618404	    -15.36170217	     85.88021410	     -4.51528556	     -3.52720505	   -140.51520527	     12.19579346	     20.49264728	     23.38531726	    -75.61963282	     -4.82186023	      2.32783727	     54.29257352	      2.23811558	      1.95982551	     62.84046674	    -21.24591166	     27.45188385	     39.27546711	    150.19557794	    -37.96896744	    -13.09598965	     26.04124875	   -120.89611400	   -160.01073495	   -156.76187525	     41.65437840	    159.81435591	    -33.21027244	      0.02529558	     -8.36176630
      0.52000000	      0.11666646	    -12.48439997	     80.78939701	     -0.02632186	      1.52912012	      1.31601287	     78.62908533	      3.47282003	    -10.19465949	   -145.88947158	     17.28351074	     -1.25318145	    -15.21156860	     86.49751049	     -4.68819845	     -3.58272224	   -140.44252791	     12.34567953	     20.58449294	     23.41100902	    -76.12758813	     -4.77657324	      2.27240707	     54.42760756	      2.01891171	      2.01777853	     62.93086269	    -21.10326374	     27.32165558	     39.00583540	    150.13993573	    -37.74282191	    -12.90046887	     25.81937524	   -120.84449594	   -160.09991505	   -156.74217923	     41.61641874	    159.87948425	    -33.12124548	      0.16358362	     -8.63468068
      0.52250000	     -0.03396124	    -12.06544293	     80.79562891	     -0.02648357	      1.53176356	      1.31262267	     79.05826409	      3.30857289	    -10.18464127	   -146.39770907	     17.58905840	     -0.42237628	    -13.64953105	     87.05204018	     -4.85158064	     -3.83478196	   -140.29443437	     12.48194112	     20.29324997	     23.47555435	    -76.61989540	     -4.83058236	      1.99431895	     54.51496257	      2.19051966	      2.00281936	     62.80445404	    -21.07347392	     27.17645626	     39.43027549	    150.75644024	    -34.31820546	    -11.66063195	     19.10955863	   -121.02985885	   -159.97386121	   -156.92495334	     42.37294258	    161.23856888	    -30.08297666	      1.38656677	    -14.80381621
      0.52500000	     -0.03143640	    -11.64854834	     80.88507263	     -0.02667517	      1.53444596	      1.30923372	     79.31010083	      3.12874907	    -10.49031411	   -146.78363136	     18.43920496	     -0.14750937	    -13.47218541	     87.60734219	     -4.94598300	     -3.81457515	   -140.09379284	     12.60779857	     20.28001560	     23.48205987	    -77.15728688	     -4.73260925	      1.96815504	     54.72534874	      1.97371197	      2.04439829	     62.88483871	    -20.99887548	     27.10658929	     39.21920812	    150.78422432	    -34.13374347	    -11.53551883	     18.88194618	   -120.96380299	   -159.99257338	   -156.73327095	     42.39919476	    161.40894465	    -29.98960412	      1.40409380	    -15.01942512
      0.52750000	     -0.16344792	    -11.17099781	     80.99682287	     -0.02704215	      1.53706275	      1.30568660	     79.50690345	      2.77253732	    -10.41335367	   -147.14360808	     19.02750205	      0.95605252	    -12.23342514	     88.07865189	     -4.95755846	     -4.03986502	   -139.85322707	     12.73739022	     19.86931429	     23.25102866	    -77.69615759	     -4.67439753	      1.68187650	     54.82050028	      2.12378841	      1.98831004	     62.74620716	    -20.89985262	     26.80163874	     39.58532121	    151.59542002	    -30.70201745	    -10.37397070	     12.06441779	   -121.13329662	   -159.88833259	   -156.86178599	     43.08791747	    163.05585546	    -27.18189013	      2.66213502	    -20.24455127
      0.53000000	     -0.14979203	    -10.71555285	     81.09262840	     -0.02740250	      1.53963840	      1.30218595	     79.62082883	      2.46152235	    -10.52011776	   -147.38862593	     19.97715666	      1.85404593	    -11.60306456	     88.56631193	     -5.01063705	     -3.98211333	   -139.57838797	     12.87388785	     19.85900816	     23.07947854	    -78.23505418	     -4.54285019	      1.62043582	     54.89910742	      1.92518119	      2.12395240	     62.74677540	    -20.88983690	     26.67425058	     39.70215460	    152.45024496	    -28.82081554	     -9.93378410	      8.36081661	   -121.24106713	   -159.83640088	   -156.81368349	     43.43218734	    163.71876598	    -25.89384413	      3.01538790	    -22.81638644
      0.53250000	     -0.10074264	    -10.29403059	     81.23436258	     -0.02754246	      1.54221771	      1.29865384	     79.78108665	      2.15092551	    -10.83023747	   -147.52809567	     20.66091136	      1.99954513	    -11.47745192	     89.07959821	     -5.08901473	     -3.89927794	   -139.26980637	     12.96686702	     19.65437829	     23.07184517	    -78.76235222	     -4.41027515	      1.64151252	     55.17588582	      1.80717227	      2.02690813	     62.77108510	    -20.79598976	     26.54132503	     39.47317059	    152.38561078	    -28.72768047	     -9.73775766	      8.14377584	   -121.17659711	   -159.83867163	   -156.54727564	     43.44518429	    163.91675713	    -25.69487196	      2.90912343	    -22.88108131
      0.53500000	     -0.11477659	     -9.83837391	     81.44305693	     -0.02810028	      1.54482325	      1.29507519	     79.95883958	      1.68596174	    -10.86949512	   -147.63020308	     21.24526395	      2.86637257	    -10.68696688	     89.51971100	     -4.94350436	     -3.94403479	   -138.85119654	     13.03002134	     19.07444630	     22.73064228	    -79.28985593	     -4.19353573	      1.49625072	     55.21086740	      1.75580205	      1.94972041	     62.73795220	    -20.89135431	     26.73910687	     39.89619728	    152.67721254	    -25.33121410	     -8.72276263	      0.80541604	   -121.40377605	   -159.83789599	   -156.98747403	     44.08600959	    165.85913871	    -22.96292713	      3.65189232	    -26.81369772
